# xmcd
#
# Track frame offsets: 
#        150
#        12950
#        25685
#        38092
#        51245
#        62892
#        76015
#        87790
#        101080
#        112157
#        123565
#        135590
#        148350
#        160380
#        173285
#        184867
#        196400
#        207682
#        220062
#        233117
#        244575
#        258407
#        270900
#        283032
#        294247
#        306997
#
# Disc length: 4252 seconds
#
# Revision: 3
# Processed by: cddbd v1.5.2PL0 Copyright (c) Steve Scherf et al.
# Submitted via: ExactAudioCopyFreeDBPlugin 1.0
#
DISCID=79109a1a
DTITLE=Chet Atkins - Galloping Guitar - The Early Years [CD 1)
DYEAR=1995
DGENRE=Country
TTITLE0=Guitar Blues '46
TTITLE1=Brown Eyes Cryin' In The Rain '46
TTITLE2=Ain't Cha Tired Of Makin' Me Blue '48
TTITLE3=I'm Gonna Get Tight '48
TTITLE4=Canned Heat '47
TTITLE5=Standing Room Only '48
TTITLE6=Don't Hand Me That Line '49
TTITLE7=Bug Dance '48
TTITLE8=In Her Own Peculiar Way (I Know My Baby Loves Me) '47
TTITLE9=The Nashville Jump '49
TTITLE10=My Guitar Is My Sweetheart '48
TTITLE11=I'm Pickin' The Blues '48
TTITLE12=Gone, Gone, Gone '93
TTITLE13=Barnyard Shuffle '48
TTITLE14=Save Your Money '93
TTITLE15=I Know When I'm Blue (I May Be Color Blind But) '48
TTITLE16=I've Been Working On The Guitar '48
TTITLE17=Dizzy Strings '48
TTITLE18=Money, Marbles And Chalk '49
TTITLE19=Wednesday Night Waltz
TTITLE20=Guitar Waltz '49
TTITLE21=Telling My Troubles To My Old Guitar '49
TTITLE22=Dance Of The Goldenrod '49
TTITLE23=Galloping Guitar '49
TTITLE24=Barber Shop Rag '49
TTITLE25=Centipede Boogie '49
EXTD=
EXTT0=
EXTT1=
EXTT2=
EXTT3=
EXTT4=
EXTT5=
EXTT6=
EXTT7=
EXTT8=
EXTT9=
EXTT10=
EXTT11=
EXTT12=
EXTT13=
EXTT14=
EXTT15=
EXTT16=
EXTT17=
EXTT18=
EXTT19=
EXTT20=
EXTT21=
EXTT22=
EXTT23=
EXTT24=
EXTT25=
PLAYORDER=
